2.2Hz3min_grf.mot
version=1
nRows=15
nColumns 19
inDegrees=yes
endheader
time	1_ground_force_vx	1_ground_force_vy	1_ground_force_vz	1_ground_force_px	1_ground_force_py	1_ground_force_pz	1_ground_torque_x	1_ground_torque_y	1_ground_torque_z	2_ground_force_vx	2_ground_force_vy	2_ground_force_vz	2_ground_force_px	2_ground_force_py	2_ground_force_pz	2_ground_torque_x	2_ground_torque_y	2_ground_torque_z
            0.005000	          -13.231639	           88.890250	           -4.676168	           -0.228411	            0.006261	           -0.413876	            0.013223	           -0.088833	            0.004673	            0.087709	           93.340127	            7.231381	           -0.204788	            0.005997	           -0.768478	            0.000197	            0.209389	            0.016222
            0.005500	          -14.059856	           89.976599	           -5.815880	           -0.228454	            0.006267	           -0.415438	            0.012646	           -0.080932	            0.005231	           -0.110201	           96.284819	            7.523542	           -0.204293	            0.006000	           -0.768721	           -0.000288	            0.251849	            0.019679
            0.006000	          -15.071934	           91.243966	           -7.137788	           -0.229665	            0.006262	           -0.414155	            0.021222	           -0.128479	            0.010051	           -0.637287	           99.595787	            8.051797	           -0.203555	            0.006001	           -0.768445	           -0.001834	            0.286607	            0.023171
            0.006500	          -15.718376	           93.594570	           -8.822815	           -0.229238	            0.006258	           -0.413400	            0.016738	           -0.099665	            0.009395	           -1.492507	          102.907078	            8.157839	           -0.204688	            0.005999	           -0.769112	           -0.004718	            0.325273	            0.025786
            0.007000	          -16.362181	           95.219786	           -9.502104	           -0.229045	            0.006258	           -0.413317	            0.022475	           -0.130794	            0.013052	           -2.306776	          107.875195	            8.457487	           -0.203526	            0.006004	           -0.769326	           -0.007402	            0.346160	            0.027139
            0.007500	          -16.359922	           95.936720	           -8.536038	           -0.226316	            0.006258	           -0.413081	            0.021936	           -0.128633	            0.011445	           -2.926294	          110.818030	            8.843684	           -0.202270	            0.006008	           -0.769024	           -0.009762	            0.369694	            0.029503
            0.008000	          -16.447315	           96.109497	           -6.792513	           -0.226567	            0.006269	           -0.415678	            0.026198	           -0.153086	            0.010819	           -3.226441	          116.155483	            9.379068	           -0.202481	            0.006008	           -0.769402	           -0.008760	            0.315353	            0.025463
            0.008500	          -17.545242	           98.448020	           -5.679192	           -0.225281	            0.006263	           -0.414208	            0.029519	           -0.165634	            0.009555	           -3.613039	          119.467461	            9.766479	           -0.201592	            0.006009	           -0.768683	           -0.010352	            0.342299	            0.027983
            0.009000	          -18.645674	          100.790868	           -5.574701	           -0.224466	            0.006261	           -0.413917	            0.038859	           -0.210054	            0.011618	           -3.863596	          124.067805	           10.486926	           -0.202164	            0.006007	           -0.768534	           -0.012232	            0.392779	            0.033200
            0.009500	          -19.473097	          103.137308	           -6.296299	           -0.224486	            0.006261	           -0.413850	            0.042693	           -0.226120	            0.013804	           -4.159132	          128.116547	           10.923854	           -0.202283	            0.006009	           -0.769295	           -0.015160	            0.466980	            0.039817
            0.010000	          -20.163451	          106.746027	           -7.104540	           -0.222827	            0.006256	           -0.412572	            0.055261	           -0.292554	            0.019471	           -4.504073	          132.900891	           11.598071	           -0.201520	            0.006015	           -0.770345	           -0.015432	            0.455346	            0.039737
            0.010500	          -20.807370	          108.371440	           -7.829685	           -0.221779	            0.006262	           -0.413927	            0.078830	           -0.410573	            0.029663	           -5.077344	          136.027534	           12.125689	           -0.200729	            0.006013	           -0.768922	           -0.018093	            0.484743	            0.043211
            0.011000	          -21.129122	          111.796819	           -7.905914	           -0.219760	            0.006258	           -0.412893	            0.086512	           -0.457747	            0.032370	           -5.794509	          140.074571	           12.609724	           -0.200297	            0.006016	           -0.769333	           -0.019936	            0.481934	            0.043384
            0.011500	          -21.815117	          115.217802	           -6.972403	           -0.219379	            0.006261	           -0.413634	            0.078677	           -0.415535	            0.025146	           -6.509679	          143.569185	           13.091788	           -0.199639	            0.006018	           -0.769084	           -0.022025	            0.485757	            0.044295
            0.012000	          -23.419562	          118.641360	           -6.678599	           -0.220025	            0.006259	           -0.413055	            0.080446	           -0.407533	            0.022941	           -6.989833	          146.879668	           13.807736	           -0.199740	            0.006017	           -0.769013	           -0.022909	            0.481384	            0.045254
